<svg viewBox="0 0 512 512" xmlns="http://www.w3.org/2000/svg" xmlns:xlink="http://www.w3.org/1999/xlink"><linearGradient id="a" gradientTransform="matrix(1 0 0 -1 0 -14274)" gradientUnits="userSpaceOnUse" x1="0" x2="512" y1="-14530" y2="-14530"><stop offset="0" stop-color="#31d8ff"/><stop offset="1" stop-color="#ff80ff"/></linearGradient><path d="m512 256c0 141.386719-114.613281 256-256 256s-256-114.613281-256-256 114.613281-256 256-256 256 114.613281 256 256zm0 0" fill="url(#a)"/><path d="m303.726562 127.820312c-3.097656-1.84375-4.675781-5.519531-3.925781-9.140624 1.164063-5.632813 2.554688-13.730469 2.554688-20.324219 0-25.558594-20.792969-46.355469-46.355469-46.355469s-46.355469 20.796875-46.355469 46.355469c0 6.59375 1.390625 14.691406 2.558594 20.324219.746094 3.625-.832031 7.296874-3.929687 9.140624-28.164063 16.773438-45.664063 47.535157-45.664063 80.28125v228.898438c0 8.285156 6.71875 15 15 15h156.78125c8.285156 0 15-6.714844 15-15v-228.898438c0-32.746093-17.496094-63.507812-45.664063-80.28125zm-111.117187 104.6875h126.78125v17.035157h-126.78125zm31.011719-78.910156c14.082031-8.386718 21.296875-24.859375 17.957031-41-1.792969-8.664062-1.933594-13.09375-1.933594-14.242187 0-9.019531 7.335938-16.355469 16.355469-16.355469s16.355469 7.335938 16.355469 16.355469c0 1.152343-.140625 5.578125-1.933594 14.246093-3.339844 16.136719 3.875 32.613282 17.957031 40.996094 17.515625 10.429688 28.953125 28.816406 30.757813 48.910156h-126.277344c1.808594-20.09375 13.246094-38.480468 30.761719-48.910156zm-31.011719 268.402344v-142.457031h126.78125v142.457031zm0 0" fill="#fff"/></svg>