<?xml version="1.0" encoding="iso-8859-1"?>
<!-- Generator: Adobe Illustrator 19.0.0, SVG Export Plug-In . SVG Version: 6.00 Build 0)  -->
<svg version="1.1" id="Capa_1" xmlns="http://www.w3.org/2000/svg" xmlns:xlink="http://www.w3.org/1999/xlink" x="0px" y="0px"
	 viewBox="0 0 512 512" style="enable-background:new 0 0 512 512;" xml:space="preserve">
<g>
	<g>
		<path d="M0,45.135v421.731C0,491.753,20.247,512,45.134,512h195.68V0H45.134C20.247,0,0,20.247,0,45.135z M79.331,256.003
			l43.061-86.347c0.03-0.061,0.068-0.115,0.099-0.176c0.071-0.137,0.139-0.275,0.214-0.41c0.087-0.157,0.185-0.308,0.278-0.463
			c0.092-0.153,0.183-0.306,0.28-0.455c0.062-0.095,0.122-0.191,0.187-0.285c0.111-0.161,0.231-0.316,0.348-0.474
			c0.117-0.158,0.233-0.316,0.356-0.468c0.052-0.064,0.103-0.129,0.156-0.192c0.131-0.156,0.27-0.306,0.408-0.458
			c0.139-0.154,0.277-0.308,0.422-0.455c0.05-0.051,0.1-0.1,0.15-0.15c0.145-0.143,0.297-0.279,0.449-0.416
			c0.154-0.139,0.305-0.281,0.463-0.413c0.064-0.053,0.129-0.104,0.193-0.156c0.15-0.121,0.306-0.235,0.461-0.35
			c0.159-0.118,0.315-0.24,0.479-0.352c0.095-0.065,0.192-0.126,0.288-0.189c0.146-0.095,0.296-0.184,0.446-0.274
			c0.156-0.094,0.308-0.193,0.467-0.281c0.137-0.076,0.277-0.145,0.416-0.217c0.058-0.03,0.111-0.066,0.17-0.096
			c0.089-0.045,0.182-0.076,0.272-0.119c0.139-0.066,0.275-0.137,0.416-0.198c0.166-0.073,0.336-0.138,0.505-0.204
			c0.165-0.065,0.33-0.125,0.495-0.184c0.117-0.041,0.232-0.086,0.349-0.125c0.173-0.057,0.349-0.106,0.524-0.156
			c0.188-0.054,0.376-0.105,0.565-0.151c0.112-0.028,0.224-0.056,0.337-0.081c0.163-0.036,0.327-0.066,0.491-0.097
			c0.203-0.038,0.406-0.074,0.609-0.103c0.131-0.019,0.262-0.035,0.394-0.05c0.143-0.017,0.287-0.03,0.432-0.043
			c0.202-0.018,0.403-0.035,0.605-0.044c0.165-0.008,0.329-0.009,0.494-0.012c0.069-0.001,0.136-0.01,0.206-0.01
			c0.065,0,0.127,0.009,0.191,0.01c0.179,0.002,0.357,0.005,0.535,0.013c0.189,0.009,0.378,0.026,0.567,0.042
			c0.144,0.012,0.287,0.025,0.429,0.041c0.145,0.017,0.289,0.035,0.433,0.056c0.193,0.028,0.384,0.063,0.576,0.098
			c0.163,0.03,0.325,0.059,0.486,0.094c0.124,0.027,0.246,0.058,0.369,0.089c0.182,0.045,0.362,0.094,0.543,0.146
			c0.173,0.049,0.346,0.097,0.516,0.153c0.125,0.041,0.247,0.088,0.37,0.132c0.164,0.059,0.328,0.119,0.492,0.183
			c0.164,0.065,0.329,0.128,0.491,0.198c0.143,0.062,0.281,0.134,0.422,0.201c0.09,0.043,0.183,0.075,0.273,0.119
			c0.063,0.031,0.119,0.07,0.181,0.102c0.133,0.069,0.268,0.135,0.398,0.207c0.16,0.088,0.313,0.187,0.47,0.282
			c0.154,0.093,0.308,0.184,0.458,0.282c0.092,0.06,0.186,0.118,0.276,0.181c0.164,0.112,0.32,0.234,0.48,0.352
			c0.158,0.118,0.317,0.234,0.469,0.357c0.062,0.05,0.125,0.099,0.186,0.15c0.158,0.132,0.31,0.273,0.463,0.412
			c0.154,0.139,0.308,0.277,0.455,0.422c0.049,0.048,0.097,0.097,0.146,0.146c0.145,0.147,0.282,0.301,0.421,0.454
			c0.139,0.153,0.28,0.305,0.412,0.463c0.052,0.062,0.102,0.126,0.153,0.188c0.122,0.152,0.238,0.309,0.355,0.466
			c0.118,0.159,0.24,0.315,0.351,0.478c0.064,0.093,0.123,0.188,0.185,0.283c0.096,0.148,0.187,0.301,0.279,0.453
			c0.093,0.155,0.192,0.307,0.279,0.466c0.075,0.134,0.143,0.272,0.213,0.409c0.031,0.06,0.069,0.115,0.099,0.176L192.296,256
			c3.698,7.415,0.686,16.421-6.726,20.117c-2.149,1.072-4.433,1.58-6.682,1.58c-5.507,0-10.808-3.044-13.433-8.308l-14.644-29.362
			v95.063c0,8.283-6.715,14.998-14.998,14.998c-8.283,0-14.998-6.715-14.998-14.998v-95.062l-14.643,29.362
			c-2.625,5.263-7.926,8.308-13.433,8.308c-2.25,0-4.532-0.508-6.682-1.58C78.646,272.422,75.634,263.415,79.331,256.003z"/>
	</g>
</g>
<g>
	<g>
		<path d="M466.865,0H270.81v511.999h196.055c24.887,0,45.135-20.247,45.135-45.134V45.135C512,20.247,491.752,0,466.865,0z
			 M432.626,255.438l-43.061,86.347c-0.039,0.078-0.084,0.152-0.125,0.229c-0.062,0.119-0.122,0.238-0.187,0.355
			c-0.043,0.078-0.088,0.155-0.133,0.232c-0.132,0.228-0.272,0.449-0.414,0.668c-0.059,0.091-0.114,0.184-0.175,0.274
			c-0.029,0.042-0.055,0.086-0.084,0.127c-0.04,0.058-0.086,0.113-0.128,0.171c-0.189,0.263-0.383,0.52-0.586,0.768
			c-0.023,0.028-0.048,0.055-0.071,0.083c-0.005,0.006-0.011,0.012-0.016,0.018c-0.086,0.102-0.173,0.203-0.262,0.303
			c-0.182,0.206-0.369,0.406-0.56,0.601c-0.05,0.051-0.101,0.102-0.152,0.152c-0.068,0.067-0.133,0.137-0.203,0.203
			c-0.317,0.301-0.647,0.586-0.987,0.856c-0.078,0.062-0.16,0.121-0.24,0.182c-0.207,0.158-0.416,0.312-0.63,0.459
			c-0.083,0.057-0.169,0.11-0.253,0.166c-0.01,0.006-0.019,0.013-0.029,0.019c-0.081,0.053-0.161,0.108-0.244,0.159
			c-0.19,0.118-0.384,0.229-0.579,0.339c-0.115,0.065-0.229,0.132-0.346,0.194c-0.085,0.045-0.169,0.089-0.255,0.132
			c-0.024,0.012-0.046,0.028-0.071,0.04c-0.045,0.022-0.092,0.037-0.137,0.058c-0.206,0.1-0.411,0.202-0.621,0.292
			c-0.136,0.059-0.276,0.108-0.414,0.163c-0.119,0.047-0.238,0.097-0.358,0.141c-0.047,0.017-0.094,0.039-0.141,0.055
			c-0.095,0.034-0.193,0.06-0.289,0.092c-0.165,0.055-0.33,0.109-0.498,0.158c-0.207,0.061-0.416,0.115-0.626,0.167
			c-0.126,0.031-0.252,0.064-0.379,0.092c-0.025,0.005-0.049,0.013-0.073,0.018c-0.104,0.022-0.208,0.042-0.312,0.062
			c-0.33,0.064-0.663,0.117-0.997,0.159c-0.084,0.01-0.168,0.022-0.252,0.031c-0.074,0.008-0.149,0.011-0.223,0.018
			c-0.44,0.041-0.882,0.068-1.327,0.07c-0.012,0-0.024,0.002-0.036,0.002c-0.004,0-0.008,0-0.012,0c-0.004,0-0.008,0-0.012,0
			c-0.012,0-0.024-0.002-0.036-0.002c-0.445-0.002-0.887-0.029-1.327-0.07c-0.074-0.007-0.149-0.01-0.222-0.018
			c-0.084-0.009-0.168-0.021-0.252-0.031c-0.336-0.042-0.67-0.096-1.002-0.16c-0.1-0.019-0.201-0.038-0.3-0.059
			c-0.028-0.006-0.055-0.014-0.083-0.02c-0.125-0.028-0.249-0.06-0.374-0.091c-0.212-0.053-0.424-0.107-0.633-0.169
			c-0.164-0.048-0.327-0.101-0.489-0.155c-0.099-0.033-0.2-0.06-0.298-0.095c-0.042-0.015-0.084-0.034-0.126-0.05
			c-0.128-0.047-0.254-0.099-0.38-0.15c-0.133-0.053-0.268-0.1-0.399-0.157c-0.214-0.092-0.423-0.195-0.632-0.297
			c-0.043-0.021-0.087-0.034-0.129-0.055c-0.023-0.012-0.044-0.026-0.067-0.038c-0.088-0.044-0.175-0.09-0.263-0.136
			c-0.113-0.06-0.223-0.124-0.334-0.187c-0.199-0.112-0.396-0.225-0.59-0.346c-0.079-0.049-0.155-0.101-0.232-0.152
			c-0.015-0.01-0.03-0.019-0.045-0.029c-0.08-0.053-0.162-0.103-0.241-0.158c-0.218-0.149-0.431-0.306-0.642-0.467
			c-0.076-0.058-0.155-0.114-0.229-0.174c-0.342-0.272-0.674-0.558-0.993-0.861c-0.067-0.064-0.129-0.131-0.195-0.196
			c-0.003-0.003-0.005-0.005-0.008-0.008c-0.049-0.048-0.097-0.097-0.145-0.146c-0.194-0.197-0.382-0.399-0.566-0.607
			c-0.087-0.099-0.174-0.198-0.258-0.299c-0.007-0.008-0.014-0.016-0.021-0.024c-0.022-0.026-0.045-0.051-0.067-0.078
			c-0.204-0.249-0.399-0.507-0.589-0.772c-0.041-0.057-0.085-0.11-0.125-0.168c-0.029-0.042-0.055-0.086-0.084-0.128
			c-0.061-0.089-0.116-0.182-0.175-0.272c-0.142-0.219-0.283-0.44-0.415-0.669c-0.045-0.077-0.089-0.154-0.133-0.232
			c-0.065-0.117-0.125-0.236-0.187-0.355c-0.04-0.077-0.086-0.151-0.125-0.229l-43.061-86.347
			c-3.696-7.412-0.685-16.419,6.728-20.114c7.413-3.697,16.417-0.685,20.115,6.728l14.643,29.362v-95.062
			c0-8.283,6.715-14.998,14.998-14.998s14.998,6.715,14.998,14.998v95.062l14.643-29.361c3.696-7.413,12.701-10.426,20.115-6.728
			C433.31,239.019,436.323,248.026,432.626,255.438z"/>
	</g>
</g>
</svg>
